<svg width="55" height="28" viewBox="0 0 55 28" fill="none" xmlns="http://www.w3.org/2000/svg">
<path d="M14.2578 22H0.818359V2.39453H14.2578V6.31836H4.74219V10.2422H11.1816V14.166H4.74219V18.0762H14.2578V22ZM21.0117 3.37891C21.0117 3.72526 20.9434 4.04883 20.8066 4.34961C20.679 4.65039 20.5013 4.91471 20.2734 5.14258C20.0456 5.36133 19.7767 5.53906 19.4668 5.67578C19.166 5.80339 18.8424 5.86719 18.4961 5.86719C18.1497 5.86719 17.8216 5.80339 17.5117 5.67578C17.2109 5.53906 16.9466 5.36133 16.7188 5.14258C16.5 4.91471 16.3223 4.65039 16.1855 4.34961C16.0579 4.04883 15.9941 3.72526 15.9941 3.37891C15.9941 3.04167 16.0579 2.72266 16.1855 2.42188C16.3223 2.11198 16.5 1.84766 16.7188 1.62891C16.9466 1.40104 17.2109 1.22331 17.5117 1.0957C17.8216 0.958984 18.1497 0.890625 18.4961 0.890625C18.8424 0.890625 19.166 0.958984 19.4668 1.0957C19.7767 1.22331 20.0456 1.40104 20.2734 1.62891C20.5013 1.84766 20.679 2.11198 20.8066 2.42188C20.9434 2.72266 21.0117 3.04167 21.0117 3.37891ZM20.3691 22H16.6094V7.35742H20.3691V22ZM33.6445 14.5488C33.6445 14.0384 33.5443 13.5462 33.3438 13.0723C33.1523 12.5892 32.888 12.1654 32.5508 11.8008C32.2135 11.4271 31.8171 11.1309 31.3613 10.9121C30.9147 10.6842 30.4362 10.5703 29.9258 10.5703C29.4154 10.5703 28.9323 10.6569 28.4766 10.8301C28.0299 11.0033 27.638 11.2585 27.3008 11.5957C26.9727 11.9329 26.7129 12.3522 26.5215 12.8535C26.3301 13.3457 26.2344 13.9108 26.2344 14.5488C26.2344 15.1595 26.3301 15.7109 26.5215 16.2031C26.7129 16.6862 26.9727 17.1009 27.3008 17.4473C27.638 17.7936 28.0299 18.0625 28.4766 18.2539C28.9323 18.4362 29.4154 18.5273 29.9258 18.5273C30.4362 18.5273 30.9147 18.418 31.3613 18.1992C31.8171 17.9714 32.2135 17.6751 32.5508 17.3105C32.888 16.9368 33.1523 16.513 33.3438 16.0391C33.5443 15.556 33.6445 15.0592 33.6445 14.5488ZM37.4043 20.1543C37.4043 21.1842 37.2083 22.1504 36.8164 23.0527C36.4245 23.9551 35.8867 24.7435 35.2031 25.418C34.5286 26.0924 33.7357 26.6257 32.8242 27.0176C31.9219 27.4095 30.9557 27.6055 29.9258 27.6055L28.0527 27.5781V23.8457L29.8984 23.873C30.4818 23.873 30.9785 23.7956 31.3887 23.6406C31.7988 23.4948 32.1452 23.2897 32.4277 23.0254C32.7103 22.7702 32.9336 22.474 33.0977 22.1367C33.2708 21.7995 33.4076 21.444 33.5078 21.0703C33.362 21.3073 33.1523 21.5033 32.8789 21.6582C32.6055 21.804 32.3001 21.9225 31.9629 22.0137C31.6348 22.1139 31.2884 22.1823 30.9238 22.2188C30.5684 22.2552 30.2357 22.2734 29.9258 22.2734C28.8958 22.2734 27.9251 22.0957 27.0137 21.7402C26.1113 21.3848 25.3184 20.8789 24.6348 20.2227C23.9603 19.5573 23.4271 18.7461 23.0352 17.7891C22.6432 16.832 22.4473 15.752 22.4473 14.5488C22.4473 13.446 22.6432 12.4206 23.0352 11.4727C23.4271 10.5247 23.9603 9.70443 24.6348 9.01172C25.3184 8.31901 26.1113 7.77669 27.0137 7.38477C27.9251 6.99284 28.8958 6.79688 29.9258 6.79688C30.3997 6.79688 30.8691 6.85612 31.334 6.97461C31.7988 7.0931 32.25 7.25716 32.6875 7.4668C33.125 7.67643 33.5397 7.92253 33.9316 8.20508C34.3327 8.48763 34.7064 8.79297 35.0527 9.12109L36.502 7.38477H37.4043V20.1543ZM54.4395 22H53.5371L52.0879 19.9902C51.7324 20.3092 51.3542 20.61 50.9531 20.8926C50.5612 21.166 50.1465 21.4076 49.709 21.6172C49.2715 21.8177 48.8203 21.9772 48.3555 22.0957C47.8997 22.2142 47.4349 22.2734 46.9609 22.2734C45.931 22.2734 44.9603 22.1003 44.0488 21.7539C43.1465 21.4076 42.3535 20.9062 41.6699 20.25C40.9954 19.5846 40.4622 18.7734 40.0703 17.8164C39.6784 16.8594 39.4824 15.7702 39.4824 14.5488C39.4824 13.4095 39.6784 12.3659 40.0703 11.418C40.4622 10.4609 40.9954 9.64062 41.6699 8.95703C42.3535 8.27344 43.1465 7.74479 44.0488 7.37109C44.9603 6.98828 45.931 6.79688 46.9609 6.79688C47.4349 6.79688 47.9043 6.85612 48.3691 6.97461C48.834 7.0931 49.2852 7.25716 49.7227 7.4668C50.1602 7.67643 50.5749 7.92253 50.9668 8.20508C51.3678 8.48763 51.7415 8.79297 52.0879 9.12109L53.5371 7.38477H54.4395V22ZM50.6797 14.5488C50.6797 14.0384 50.5794 13.5462 50.3789 13.0723C50.1875 12.5892 49.9232 12.1654 49.5859 11.8008C49.2487 11.4271 48.8522 11.1309 48.3965 10.9121C47.9499 10.6842 47.4714 10.5703 46.9609 10.5703C46.4505 10.5703 45.9674 10.6569 45.5117 10.8301C45.0651 11.0033 44.6732 11.2585 44.3359 11.5957C44.0078 11.9329 43.748 12.3522 43.5566 12.8535C43.3652 13.3457 43.2695 13.9108 43.2695 14.5488C43.2695 15.1868 43.3652 15.7565 43.5566 16.2578C43.748 16.75 44.0078 17.1647 44.3359 17.502C44.6732 17.8392 45.0651 18.0944 45.5117 18.2676C45.9674 18.4408 46.4505 18.5273 46.9609 18.5273C47.4714 18.5273 47.9499 18.418 48.3965 18.1992C48.8522 17.9714 49.2487 17.6751 49.5859 17.3105C49.9232 16.9368 50.1875 16.513 50.3789 16.0391C50.5794 15.556 50.6797 15.0592 50.6797 14.5488Z" fill="white"/>
</svg>
